<?xml version="1.0" standalone="no"?><!DOCTYPE svg PUBLIC "-//W3C//DTD SVG 1.1//EN" "http://www.w3.org/Graphics/SVG/1.1/DTD/svg11.dtd"><svg t="1569477353909" class="icon" viewBox="0 0 1024 1024" version="1.1" xmlns="http://www.w3.org/2000/svg" p-id="1210" xmlns:xlink="http://www.w3.org/1999/xlink" width="200" height="200"><defs><style type="text/css"></style></defs><path d="M355.6 783.3c11 68.8-35.7 133.7-104.5 144.7-68.8 11.1-133.7-35.7-144.7-104.5S142 690 210.8 678.8c13.4-2.2 27-2.2 40.3 0 13.6-14.6 26-28.7 36.9-42.1-63.6-21.7-134-5.4-181.5 42.1-68.6 68.6-68.6 180.4 0 249.1s180.4 68.7 249.1 0c47.4-47.5 63.7-117.9 42.1-181.5-13.5 11-27.6 23.4-42.1 36.9z m387.2-152.9c10.8 13.6 23 27.7 36.4 42.3 68.8-11 133.6 36 144.5 104.8s-36 133.6-104.8 144.5c-68.8 11-133.6-36-144.5-104.8-2.1-13.2-2.1-26.6 0-39.8-14.6-13.4-28.8-25.6-42.3-36.3-21.3 63.3-4.9 133.3 42.3 180.6 68.7 68.7 180.4 68.7 249.1 0s68.7-180.4 0-249.1c-47.3-47-117.2-63.5-180.7-42.2z m-65.7-377.8C666.1 183.8 713 119 781.8 108s133.6 35.9 144.6 104.7c11 68.8-35.9 133.6-104.7 144.6-13.2 2.1-26.7 2.1-39.9 0-13.9 15.1-26.1 29.2-36.6 42.3 63.4 21.5 133.6 5.1 181-42.3 68.7-68.7 68.7-180.4 0-249.1s-180.4-68.7-249.1 0c-47.3 47.4-63.7 117.6-42.3 181.1 12.8-10.3 26.9-22.5 42.3-36.7zM280.3 386.8c-11.4-13.5-24-27.5-37.6-41.8-68.7 11.4-133.8-35.2-145.1-104s35.2-133.8 104-145.1 133.8 35.2 145.1 104c2.3 13.7 2.3 27.6 0 41.3 14.3 13.6 28.3 26.1 41.8 37.6 22.3-63.8 6.1-134.9-41.8-182.7-68.7-68.7-180.5-68.7-249.1 0s-68.7 180.4 0 249.1c48 47.7 118.9 63.9 182.7 41.6z m237.5 77.9c-28.4 0-51.4 23.1-51.3 51.5 0.1 28.5 23.1 51.4 51.5 51.3 28.4 0 51.4-23.1 51.3-51.5 0-13.6-5.4-26.7-15.1-36.3-9.6-9.7-22.7-15-36.4-15z" p-id="1211" fill="#1296db"></path><path d="M764 816.4c2.9 3.1 10.1 11.3 11.6 12.7l0.7 0.7c0.4 0.4 0.8 0.8 1.3 1.2 17.5 15.8 42.8 17 57.4 2.2 13.8-13.8 13.7-36.9 0.6-54.1-3.5-3.9-7.3-7.6-11.2-11.1-1.5-1.2-2.6-2.3-3.2-2.7C781 727.9 649.4 600.2 652 525.4c0.1-3.1 0-16.3 0-20-0.4-75 129.3-201 169.2-237.9 0.5-0.4 1.7-1.5 3.2-2.8 3.9-3.5 7.7-7.2 11.2-11.1 13.1-17.3 13.3-40.4-0.6-54.1-14.7-14.7-40-13.6-57.4 2.2-0.5 0.3-0.9 0.7-1.3 1.2l-0.7 0.7c-1.5 1.5-8.7 9.6-11.6 12.8-39.4 42.2-155.7 160.2-229.3 165.8-5.8 0.4-25.7 0.4-30.5 0.2-75.4-3-198.5-129.8-234.9-169.2-0.5-0.5-1.5-1.7-2.8-3.2-3.5-3.9-7.2-7.7-11.1-11.2-17.3-13.1-40.4-13.3-54.1 0.5-14.7 14.7-13.6 40 2.2 57.4 0.3 0.5 0.7 0.9 1.2 1.3l0.7 0.7c1.5 1.5 9.6 8.7 12.8 11.6 41 38.4 154.1 149.8 165.1 223.6 1.2 7.9 1.1 40.4-1 50.4C366.5 618 258.1 724.8 218 762.1c-3.1 2.9-11.3 10.1-12.8 11.6l-0.7 0.7c-0.4 0.4-0.8 0.8-1.2 1.3-15.8 17.5-17 42.8-2.2 57.4 13.8 13.8 36.9 13.7 54.1 0.6 3.9-3.5 7.6-7.3 11.1-11.2 1.2-1.5 2.3-2.6 2.8-3.2C304.8 780.9 423 659 498.7 650.5c6.8-0.8 31-0.7 37.4-0.1 73.6 7.2 188.8 124.2 227.9 166zM574.3 572.6c-31.2 31.3-81.8 31.3-113.1 0s-31.3-81.8 0-113.1 81.8-31.3 113.1 0c31.3 30.8 31.6 81.1 0.7 112.3-0.2 0.3-0.4 0.6-0.7 0.8z" p-id="1212" fill="#1296db"></path></svg>